# xmcd
#
# Track frame offsets: 
#        150
#        14927
#        31204
#        48381
#        66158
#        80485
#        98184
#        115341
#        131824
#        148211
#        164956
#        181804
#        197789
#        212556
#        226061
#        238996
#        250931
#        263691
#        278250
#        294615
#
# Disc length: 4122 seconds
#
# Revision: 0
# Processed by: cddbd v1.5.1PL2 Copyright (c) Steve Scherf et al.
# Submitted via: ExactAudioCopy v0.95a5
#
DISCID=31101814
DTITLE=鄧麗君 - 酒廊情歌 第三輯 HDCD
DYEAR=1900
DGENRE=Blues
TTITLE0=海韻
TTITLE1=淡淡情愁
TTITLE2=冬戀
TTITLE3=幾時再回頭
TTITLE4=牽引
TTITLE5=瀟灑的走
TTITLE6=無奈的思緒
TTITLE7=你可知道我愛誰
TTITLE8=舞女
TTITLE9=粉紅色的回憶
TTITLE10=你瀟灑我漂亮
TTITLE11=錯誤的愛
TTITLE12=無言的溫柔
TTITLE13=不能不想你
TTITLE14=望著天空的女孩
TTITLE15=知道不知道
TTITLE16=望月怕團圓
TTITLE17=我有一段情
TTITLE18=我告訴自己
TTITLE19=讓我悄悄離去
EXTD=
EXTT0=
EXTT1=
EXTT2=
EXTT3=
EXTT4=
EXTT5=
EXTT6=
EXTT7=
EXTT8=
EXTT9=
EXTT10=
EXTT11=
EXTT12=
EXTT13=
EXTT14=
EXTT15=
EXTT16=
EXTT17=
EXTT18=
EXTT19=
PLAYORDER=
